<svg width="1200" height="33" viewBox="0 0 1200 33" fill="none" xmlns="http://www.w3.org/2000/svg">
<path d="M239.76 9.42857C324.54 9.42857 369.36 7.66779 402.06 6.38079C431.46 5.22579 445.92 4.71429 479.58 4.71429C513.24 4.71429 527.7 5.22579 557.1 6.38079C589.8 7.66779 634.62 9.42857 719.46 9.42857C804.36 9.42857 849.24 7.66779 882.06 6.38079C911.52 5.22579 925.98 4.71429 959.76 4.71429C993.54 4.71429 1008 5.22579 1037.46 6.38079C1070.22 7.66779 1115.1 9.42857 1200 9.42857V4.71429C1166.22 4.71429 1151.76 4.20279 1122.3 3.04779C1089.54 1.76079 1044.66 0 959.76 0C874.86 0 830.04 1.76079 797.22 3.04543C767.76 4.20279 753.36 4.71429 719.46 4.71429C685.74 4.71429 671.34 4.20279 641.94 3.04779C609.24 1.76079 564.42 0 479.58 0C394.74 0 349.92 1.76079 317.22 3.04779C287.82 4.20279 273.42 4.71429 239.76 4.71429C206.1 4.71429 191.7 4.20279 162.3 3.04779C129.6 1.76079 84.78 0 0 0V4.71429C33.66 4.71429 48.06 5.22579 77.46 6.38079C110.16 7.66779 154.98 9.42857 239.76 9.42857ZM239.76 21.2143C324.54 21.2143 369.36 19.4535 402.06 18.1665C431.46 17.0115 445.92 16.5 479.58 16.5C513.24 16.5 527.7 17.0115 557.1 18.1665C589.8 19.4535 634.62 21.2143 719.46 21.2143C804.36 21.2143 849.24 19.4535 882.06 18.1665C911.52 17.0115 925.98 16.5 959.76 16.5C993.54 16.5 1008 17.0115 1037.46 18.1665C1070.22 19.4535 1115.1 21.2143 1200 21.2143V16.5C1166.22 16.5 1151.76 15.9885 1122.3 14.8335C1089.54 13.5465 1044.66 11.7857 959.76 11.7857C874.86 11.7857 830.04 13.5465 797.22 14.8311C767.76 15.9885 753.36 16.5 719.46 16.5C685.74 16.5 671.34 15.9885 641.94 14.8335C609.24 13.5465 564.42 11.7857 479.58 11.7857C394.74 11.7857 349.92 13.5465 317.22 14.8335C287.82 15.9885 273.42 16.5 239.76 16.5C206.1 16.5 191.7 15.9885 162.3 14.8335C129.6 13.5465 84.78 11.7857 0 11.7857V16.5C33.66 16.5 48.06 17.0115 77.46 18.1665C110.16 19.4535 154.98 21.2143 239.76 21.2143ZM239.76 33C324.54 33 369.36 31.2392 402.06 29.9522C431.46 28.7972 445.92 28.2857 479.58 28.2857C513.24 28.2857 527.7 28.7972 557.1 29.9522C589.8 31.2392 634.62 33 719.46 33C804.36 33 849.24 31.2392 882.06 29.9522C911.52 28.7972 925.98 27.5 959.76 27.5C993.54 27.5 1008 28.7972 1037.46 29.9522C1070.22 31.2392 1115.1 33 1200 33V28.2857C1166.22 28.2857 1151.76 27.7742 1122.3 26.6192C1089.54 25.3322 1044.66 23.5714 959.76 23.5714C874.86 23.5714 830.04 25.3322 797.22 26.6169C767.76 27.7742 753.36 28.2857 719.46 28.2857C685.74 28.2857 671.34 27.7742 641.94 26.6192C609.24 25.3322 564.42 23.5714 479.58 23.5714C394.74 23.5714 349.92 25.3322 317.22 26.6192C287.82 27.7742 273.42 28.2857 239.76 28.2857C206.1 28.2857 191.7 27.7742 162.3 26.6192C129.6 25.3322 84.78 23.5714 0 23.5714V28.2857C33.66 28.2857 48.06 28.7972 77.46 29.9522C110.16 31.2392 154.98 33 239.76 33Z" fill="#FF0000"/>
</svg>
