<svg width="30" height="30" viewBox="0 0 30 30" fill="none" xmlns="http://www.w3.org/2000/svg">
<circle cx="15" cy="15" r="14" fill="white" stroke="black" stroke-width="2"/>
<path d="M23.49 19.8067C23.4483 19.5487 23.2865 19.3282 23.0443 19.1973L19.4605 17.0858L19.431 17.0693C19.2808 16.994 19.1148 16.9555 18.9468 16.9568C18.6465 16.9568 18.3598 17.0705 18.1608 17.27L17.103 18.3282C17.0578 18.3712 16.9103 18.4335 16.8655 18.4357C16.8533 18.4347 15.6348 18.347 13.3915 16.1035C11.1523 13.8648 11.0565 12.6425 11.0565 12.6425C11.0578 12.58 11.1193 12.433 11.163 12.3875L12.065 11.4857C12.3828 11.1672 12.478 10.6392 12.2895 10.2302L10.2975 6.482C10.1528 6.184 9.87154 6 9.55954 6C9.33879 6 9.12579 6.0915 8.95929 6.25775L6.50054 8.711C6.26479 8.9455 6.06179 9.3555 6.01754 9.6855C5.99604 9.84325 5.55979 13.6087 10.7223 18.772C15.105 23.1542 18.5225 23.4947 19.4663 23.4947C19.5812 23.4962 19.6961 23.4903 19.8103 23.477C20.1393 23.433 20.5488 23.2305 20.783 22.9957L23.2398 20.5392C23.4403 20.3377 23.5318 20.0715 23.49 19.8067Z" fill="#FF0000"/>
</svg>
