<svg width="96" height="68" viewBox="0 0 96 68" fill="none" xmlns="http://www.w3.org/2000/svg">
<g clip-path="url(#clip0)">
<path d="M0 33.92V0H48H96V33.92V67.84H48H0V33.92Z" fill="#FF0000"/>
<path d="M0 33.92V0H48H96V33.92V67.84H48H0V33.92ZM79.0613 65.024C81.6213 64.1707 84.6933 61.1413 85.376 58.8373C85.8027 57.5147 86.1013 57.1733 86.912 57.1733C88.2773 57.1733 91.6907 55.168 93.0987 53.5467C94.1653 52.3093 94.2933 51.6693 94.8907 45.6107C95.2747 41.984 95.5733 37.632 95.5733 35.968V32.8533L93.9947 32.0427C92.5867 31.3173 91.9467 30.336 87.8933 22.5707L83.4133 13.8667L74.9653 13.7387L66.5173 13.6533L66.7307 12.4587C67.4133 9.00267 67.456 8.02133 66.9867 6.57067C66.3893 4.77867 65.4507 3.75467 63.616 2.816C62.5067 2.21867 59.0933 2.13333 37.2907 2.13333C8.66133 2.13333 10.6667 1.83467 10.6667 5.84533V8.10667H24.576C38.4427 8.10667 38.4853 8.10667 39.5093 9.088C40.832 10.3253 40.832 11.9467 39.424 13.2693L38.3147 14.2933L19.4987 14.5067L0.64 14.72L0.512 16.768L0.384 18.7733H18.688C36.5653 18.7733 37.0347 18.7733 38.144 19.6693C39.5947 20.8213 39.68 23.168 38.3147 24.6187L37.4187 25.6H24.0213H10.6667L9.984 26.6667C9.30133 27.7333 9.472 29.3547 10.4107 29.952C10.6667 30.1227 16.5547 30.2933 23.5093 30.2933C35.6267 30.2933 36.1813 30.336 37.2907 31.1893C38.6987 32.2987 38.784 34.304 37.4613 35.712L36.5653 36.6933H20.2667H3.968L3.49867 37.76C3.2 38.3573 2.98667 39.168 2.98667 39.552C2.98667 40.704 4.30933 41.8133 5.67467 41.8133H6.912L6.61333 46.72C6.35733 51.2 6.4 51.7547 7.21067 53.504C8.23467 55.5947 10.2827 56.7467 13.0133 56.7467C14.336 56.7467 14.5067 56.9173 14.8907 58.24C15.104 59.0933 15.9147 60.4587 16.6827 61.3547C21.248 66.56 29.568 65.8347 33.408 59.9467C34.048 58.9653 34.56 57.8133 34.56 57.4293C34.56 56.832 35.712 56.7467 45.8667 56.7467C55.2107 56.7467 57.4293 56.6187 58.8373 56.064C60.416 55.4667 60.672 55.4667 61.9093 56.064C62.6773 56.448 63.744 56.7467 64.2987 56.7467C64.896 56.7467 65.28 57.0027 65.28 57.4293C65.28 58.6667 67.4987 62.2507 68.992 63.4027C71.9787 65.664 75.52 66.2187 79.0613 65.024Z" fill="white"/>
<path d="M20.6507 58.624C19.4133 57.344 19.2 56.7893 19.2 55.0827C19.2 51.5413 21.504 49.0667 24.832 49.0667C26.112 49.0667 26.752 49.408 28.16 50.688C29.7387 52.224 29.8667 52.5227 29.8667 54.6987C29.8667 55.9787 29.6107 57.3013 29.3547 57.6853C28.2453 59.008 25.728 60.16 23.8933 60.16C22.3573 60.16 21.8453 59.904 20.6507 58.624Z" fill="white"/>
<path d="M72.8747 58.624C71.5947 57.9414 70.4 56.0214 70.4 54.6134C70.4 52.224 72.832 49.92 75.392 49.92C77.0987 49.92 79.104 51.2854 79.7867 52.9067C81.4507 56.96 76.8427 60.8 72.8747 58.624Z" fill="white"/>
<path d="M64.256 51.4133C63.5307 50.8587 63.488 50.432 63.7867 46.4213C64.0427 42.1973 65.8773 23.936 66.3893 20.1813L66.6453 18.3467H69.1627H71.68V25.728V33.1093L73.088 34.432C75.3493 36.608 75.8187 36.6933 83.3707 36.6933C87.2533 36.6933 90.4533 36.8213 90.4533 37.0347C90.4533 37.2053 89.9413 40.4053 89.3867 44.16C88.7893 47.9147 88.32 51.2427 88.32 51.5413C88.32 51.7973 87.808 52.0533 87.1253 52.0533C86.144 52.0533 85.8027 51.7547 85.1627 50.304C82.2187 43.648 73.3013 41.984 68.096 47.1893C67.456 47.872 66.4747 49.2373 65.9627 50.2187C65.152 51.84 64.9813 51.9254 64.256 51.4133Z" fill="white"/>
</g>
<defs>
<clipPath id="clip0">
<rect width="96" height="67.84" fill="white"/>
</clipPath>
</defs>
</svg>
