<svg width="95" height="77" viewBox="0 0 95 77" fill="none" xmlns="http://www.w3.org/2000/svg">
<path d="M64.5779 45.7045C65.1295 45.254 65.6783 44.7508 66.1992 44.152C68.1154 41.9477 68.3904 38.5715 68.3983 36.8947C68.3998 36.6165 68.2999 36.3522 68.12 36.1594C67.9494 35.9786 67.7243 35.877 67.4893 35.877C67.4763 35.877 67.4631 35.877 67.45 35.8779C65.9409 35.9461 62.9105 36.3709 60.9927 38.5768C60.1061 39.5954 59.4268 40.6906 58.9458 41.7535C56.5931 39.9621 52.9802 38.1795 49.5179 36.6968C47.1505 35.6834 44.6765 35.1879 42.2193 35.1879C37.4962 35.1879 32.8353 37.0175 29.1133 40.5165C27.1494 42.3659 25.7125 44.2938 25.7387 45.964C25.7649 47.6632 27.3169 49.5706 29.3947 51.3688C33.0036 54.49 37.398 56.1031 41.8313 56.1031C44.5169 56.1031 47.216 55.5119 49.7656 54.3049C51.8866 53.3015 54.0634 52.1784 55.9616 51.0203C56.3203 50.8014 58.6146 49.2248 58.7415 49.1254C58.8099 49.2971 60.2232 51.8858 61.2218 52.9691C63.1961 55.1109 66.2501 55.4052 67.7607 55.4156C68.0113 55.4156 68.2478 55.303 68.423 55.1052C68.5937 54.9073 68.6858 54.6377 68.6781 54.3597C68.6573 53.7938 68.4012 47.7116 64.5779 45.7045Z" fill="#FF0000"/>
<path d="M94.4147 13.0612C94.3349 5.84314 73.2311 0 47.2083 0C21.1856 0 0.0817333 5.84314 0.00191417 13.0612H0V63.8976C0 71.1345 21.136 77 47.2083 77C73.2805 77 94.4167 71.1345 94.4167 63.8976V13.0612H94.4147ZM70.7739 57.6023L70.759 57.6195L70.7439 57.6365C69.9614 58.5207 68.874 59.0277 67.7605 59.0277H67.7506H67.7406C65.6399 59.0135 61.7042 58.5432 58.9475 55.5525C58.5677 55.1404 58.1619 54.6015 57.7715 54.0295C57.6625 54.1011 57.5785 54.1553 57.5287 54.1857C55.7233 55.2873 53.5406 56.4452 51.0419 57.6273C48.116 59.0126 45.017 59.7152 41.8312 59.7152C36.6203 59.7152 31.4935 57.7629 27.3939 54.2173C24.0868 51.3554 22.527 48.7522 22.4851 46.0263C22.443 43.333 23.8803 40.7067 27.0105 37.7593C31.2527 33.7711 36.6538 31.5749 42.2193 31.5749C45.1252 31.5749 47.9748 32.164 50.6892 33.3259C53.5646 34.5571 55.9982 35.7565 57.9646 36.91C58.1839 36.6224 58.4131 36.3415 58.6516 36.0676C61.3285 32.9885 65.2145 32.3652 67.3028 32.2687C67.379 32.2647 67.4416 32.2643 67.4895 32.2643C68.5656 32.2643 69.5876 32.7197 70.3676 33.5465L70.3743 33.5535L70.3808 33.5605C71.1958 34.4343 71.6592 35.6575 71.6523 36.9127C71.6429 38.9659 71.3131 42.6143 69.369 45.5664C71.593 48.8891 71.8899 53.1412 71.9293 54.212L71.9299 54.2301L71.9304 54.2484C71.9647 55.4872 71.5432 56.7098 70.7739 57.6023ZM47.2083 19.2165C29.6257 19.2165 17.0991 16.5447 10.6251 14.0453C9.8189 13.7339 9.8189 12.4704 10.6251 12.1591C17.0991 9.65966 29.6255 6.98789 47.2083 6.98789C64.7911 6.98789 77.3176 9.65966 83.7913 12.1591C84.5978 12.4704 84.5978 13.7342 83.7913 14.0453C77.3176 16.5449 64.7909 19.2165 47.2083 19.2165Z" fill="#FF0000"/>
</svg>
