<svg width="299" height="138" viewBox="0 0 299 138" fill="none" xmlns="http://www.w3.org/2000/svg">
<path d="M277.254 61.9327C278.21 59.8813 284.738 51.2277 290.649 42.2576C290.655 42.2513 290.659 42.2451 290.662 42.2396C291.996 40.2157 293.296 38.1769 294.497 36.193C294.531 36.1373 294.565 36.0808 294.599 36.025C294.793 35.7016 308.619 13.5363 288.927 22.5127C288.927 22.5142 288.925 22.5166 288.924 22.5182C285.224 24.4156 280.518 27.245 274.601 31.2103C261.694 39.8624 235.438 52.5277 235.438 52.5277C235.438 52.5277 230.869 54.9959 227.856 53.1157C212.629 43.6165 190.444 26.7425 161.196 17.347C160.708 17.19 160.09 16.8186 160.93 16.0406L173.456 7.28098C173.456 7.28098 174.437 6.43313 173.177 6.02333C166.978 4.00338 141.16 -4.65423 118.82 3.30546C114.269 4.9266 110.534 6.25806 107.462 7.35243C106.142 7.82346 104.8 8.37692 102.125 8.70743C41.2013 10.791 0 55.5125 0 73.203C0 85.0754 6.40135 93.0421 29.7905 104.117C30.26 104.042 33.8304 106.606 41.6739 104.249C43.7763 103.617 58.7073 97.9935 59.3008 97.7399C59.8959 97.4683 60.2821 97.334 60.5286 97.3741C60.8458 97.4243 61.079 98.1293 61.0774 98.2722C61.0279 102.501 53.1012 105.926 48.6005 109.685C47.828 110.045 47.6207 111.839 48.9734 112.42C48.975 112.42 64.8677 120.941 90.0374 123.59C92.0722 123.805 118.566 140.781 145.283 136.227C159.413 133.817 166.137 132.993 169.206 132.147C171.884 131.409 170.605 130.559 170.605 130.559L157.213 119.889C156.306 118.883 157.04 118.111 157.799 117.895C187.538 109.433 211.052 96.0936 225.056 84.6656C226.942 83.1261 231.843 86.786 235.342 88.554C246.962 94.4238 295.193 114.306 299.168 110.097C299.51 109.743 299.534 109.214 299.186 108.488C292.399 94.2323 267.869 82.0725 277.254 61.9327ZM49.329 60.5596C45.0387 60.5596 41.5609 57.0175 41.5609 52.6486C41.5609 48.2798 45.0387 44.7384 49.329 44.7384C53.6194 44.7384 57.0979 48.2798 57.0979 52.6486C57.0979 57.0175 53.6194 60.5596 49.329 60.5596ZM84.0937 105.569C83.6156 105.999 83.1799 106.647 83.4327 105.715C83.4327 105.715 95.543 87.4933 97.1131 63.9409C98.2891 46.2897 86.5289 24.6723 86.5289 24.6723C86.5289 24.6723 86.5517 24.0412 86.9646 24.5397C91.1513 29.6033 132.375 62.1737 84.0937 105.569Z" fill="#222222"/>
</svg>
